<?xml version="1.0" encoding="UTF-8"?>
<svg id="Layer_1" data-name="Layer 1" xmlns="http://www.w3.org/2000/svg" viewBox="0 0 189.75 189.75">
  <defs>
    <style>
      .cls-1 {
        fill: #be1e2d;
      }

      .cls-2 {
        fill: #fff;
      }
    </style>
  </defs>
  <rect class="cls-2" width="189.75" height="189.75"/>
  <g>
    <path d="M81.03,72.01v-4.36H19.78v55.84h24.88v-21.29h31.06v-16.19h-31.06v-14h36.37ZM19.78,129.05v5.91h24.88v-5.91h-24.88ZM19.78,54.79v7.3h61.25v-7.3H19.78Z"/>
    <path class="cls-1" d="M91.11,129.05v5.91h24.88v-5.91h-24.88ZM166.92,129.05h-28.13l3.19,5.91h27.99l-3.05-5.91ZM157.97,111.73c-.58-1.17-1.74-2.83-3.47-4.98-1.73-2.16-3.05-3.56-3.96-4.22-1.35-.98-3.5-1.97-6.45-2.95,3.69-.84,6.59-1.9,8.7-3.17,3.32-2.01,5.93-4.63,7.83-7.85,1.9-3.23,2.84-7.07,2.84-11.51,0-3.5-.58-6.64-1.75-9.4h-70.6v55.84h24.88v-21.07h2.19c2.26,0,4.29.62,6.07,1.86,1.32.95,2.81,3.01,4.49,6.18l7.04,13.03h28.26l-6.07-11.76ZM137.02,83.66c-1.04,1.35-2.38,2.19-4.02,2.52-3.24.73-5.43,1.09-6.56,1.09h-10.45v-16.29h10.89c4.52,0,7.6.69,9.24,2.07,1.64,1.39,2.46,3.38,2.46,5.96,0,1.75-.52,3.3-1.56,4.65ZM149.96,56.76c-4.05-1.32-9.9-1.97-17.56-1.97h-41.29v7.3h67.07c-2.23-2.5-4.98-4.28-8.22-5.33Z"/>
  </g>
</svg>