<?xml version="1.0" encoding="UTF-8"?>
<svg id="Layer_1" data-name="Layer 1" xmlns="http://www.w3.org/2000/svg" viewBox="0 0 866.04 124.74">
  <defs>
    <style>
      .cls-1 {
        fill: #be1e2d;
      }
    </style>
  </defs>
  <path d="M93.05,39.5v-4.36H31.8v55.84h24.88v-21.29h31.06v-16.19h-31.06v-14h36.37ZM31.8,96.54v5.91h24.88v-5.91h-24.88ZM31.8,22.28v7.3h61.25v-7.3H31.8Z"/>
  <path d="M172.86,96.54h-25.51l1.79,5.91h25.94l-2.22-5.91ZM149.78,35.14h-36.68l-20.99,55.84h24.37l.52-1.76h28.13l.53,1.76h25.11l-20.99-55.84ZM122.38,71.88l8.76-28.82,8.85,28.82h-17.61ZM90.02,96.54l-2.22,5.91h25.29l1.75-5.91h-24.82ZM144.95,22.28h-27.02l-2.74,7.3h32.5l-2.74-7.3Z"/>
  <path d="M239.15,26.63c-5.38-3.81-13.19-5.72-23.44-5.72-8.35,0-14.92,1.05-19.71,3.15-3.34,1.46-6.1,3.3-8.27,5.52h54.74c-.99-1.1-2.1-2.08-3.32-2.95ZM188.18,96.54c5.36,4.85,14.59,7.28,27.7,7.28,7.76,0,14.2-1.12,19.3-3.37,2.42-1.06,4.6-2.36,6.51-3.91h-53.51ZM248.17,64.5c-2.13-3.54-5.54-6.5-10.23-8.89-4.68-2.39-12.44-4.75-23.27-7.08-4.37-.91-7.14-1.9-8.31-2.96-1.2-1.02-1.8-2.16-1.8-3.44,0-1.75.73-3.24,2.18-4.46,1.46-1.22,3.63-1.83,6.51-1.83,3.5,0,6.24.82,8.23,2.46,1.99,1.64,3.29,4.27,3.91,7.88l23.35-1.37c-.45-3.66-1.32-6.88-2.61-9.67h-62.31c-1.45,2.94-2.18,6.01-2.18,9.23,0,6.27,2.34,11.43,7,15.48,4.63,4.05,12.38,7.29,23.24,9.73,6.64,1.46,10.87,3.01,12.69,4.65,1.82,1.64,2.74,3.5,2.74,5.58,0,2.19-.96,4.11-2.87,5.77-1.92,1.66-4.64,2.49-8.18,2.49-4.74,0-8.39-1.62-10.94-4.87-1.57-2-2.61-4.92-3.12-8.75l-23.57,1.48c.5,5.73,2.13,10.75,4.92,15.05h63.28c.09-.13.18-.26.27-.4,2.85-4.34,4.27-9.08,4.27-14.22,0-4.37-1.07-8.33-3.2-11.86Z"/>
  <path d="M263.95,96.54v5.91h24.77v-5.91h-24.77ZM315.79,96.54v5.91h24.88v-5.91h-24.88ZM315.79,22.28v7.3h24.88v-7.3h-24.88ZM315.79,35.14v15.19h-27.07v-15.19h-24.77v55.84h24.77v-20.96h27.07v20.96h24.88v-55.84h-24.88ZM263.95,22.28v7.3h24.77v-7.3h-24.77Z"/>
  <path d="M358.12,96.54v5.91h24.83v-5.91h-24.83ZM358.12,22.28v7.3h24.83v-7.3h-24.83ZM358.12,35.14v55.84h24.83v-55.84h-24.83Z"/>
  <path d="M412.63,96.54c1.54,1.13,3.17,2.12,4.91,2.96,5.92,2.88,13.4,4.32,22.45,4.32s16.32-1.67,22.28-5.01c1.25-.7,2.43-1.45,3.56-2.27h-53.2ZM472.89,35.14h-67.24c-5.36,6.96-8.05,16.05-8.05,27.28,0,9.37,1.84,17.17,5.53,23.4,1.1,1.87,2.31,3.59,3.62,5.16h65.07c1.57-1.87,2.95-3.93,4.12-6.17,3.16-5.99,4.73-13.68,4.73-23.05,0-10.93-2.59-19.81-7.78-26.62ZM451.52,80.08c-2.91,3.47-7.03,5.2-12.35,5.2s-9.27-1.77-12.28-5.31c-3.01-3.53-4.51-9.35-4.51-17.44s1.51-14.02,4.54-17.56c3.02-3.53,7.03-5.3,12.03-5.3s9.34,1.74,12.38,5.22c3.05,3.48,4.57,9,4.57,16.54,0,8.97-1.46,15.19-4.38,18.65ZM439,20.91c-11.58,0-20.9,2.89-27.94,8.67h56.48c-7.04-5.78-16.55-8.67-28.54-8.67Z"/>
  <path d="M543.47,96.54l4.03,5.91h23.35v-5.91h-27.38ZM517.31,22.28h-23.13v7.3h28.1l-4.97-7.3ZM547.5,22.28v7.3h23.35v-7.3h-23.35ZM547.5,35.14v31.49l-21.44-31.49h-31.88v55.84h23.3v-32.55l22.2,32.55h31.17v-55.84h-23.35ZM494.18,96.54v5.91h23.3v-5.91h-23.3Z"/>
  <path class="cls-1" d="M587.64,96.54v5.91h24.88v-5.91h-24.88ZM663.45,96.54h-28.13l3.19,5.91h27.99l-3.05-5.91ZM654.5,79.22c-.58-1.17-1.74-2.83-3.47-4.98-1.73-2.16-3.05-3.56-3.96-4.22-1.35-.98-3.5-1.97-6.45-2.95,3.69-.84,6.59-1.9,8.7-3.17,3.32-2.01,5.93-4.63,7.83-7.85,1.9-3.23,2.84-7.07,2.84-11.51,0-3.5-.58-6.64-1.75-9.4h-70.6v55.84h24.88v-21.07h2.19c2.26,0,4.29.62,6.07,1.86,1.32.95,2.81,3.01,4.49,6.18l7.04,13.03h28.26l-6.07-11.76ZM633.55,51.15c-1.04,1.35-2.38,2.19-4.02,2.52-3.24.73-5.43,1.09-6.56,1.09h-10.45v-16.29h10.89c4.52,0,7.6.69,9.24,2.07,1.64,1.39,2.46,3.38,2.46,5.96,0,1.75-.52,3.3-1.56,4.65ZM646.49,24.25c-4.05-1.32-9.9-1.97-17.56-1.97h-41.29v7.3h67.07c-2.23-2.5-4.98-4.28-8.22-5.33Z"/>
  <path d="M672.57,22.28v7.3h24.72v-7.3h-24.72ZM724.69,35.14v36.04c0,4.44-1.21,7.88-3.64,10.3-2.42,2.42-5.77,3.63-10.03,3.63s-7.67-1.22-10.09-3.68c-2.43-2.46-3.64-5.88-3.64-10.25v-36.04h-24.72v34.9c0,3.94.77,8.46,2.3,13.56.75,2.52,2.02,4.98,3.8,7.38h64.58c1.68-2.28,2.99-4.79,3.94-7.52,1.48-4.21,2.22-8.68,2.22-13.42v-34.9h-24.72ZM724.69,22.28v7.3h24.72v-7.3h-24.72ZM683.9,96.54c1.51,1.27,3.09,2.34,4.75,3.21,3.1,1.62,6.95,2.7,11.57,3.25,4.61.54,8.86.82,12.77.82,6.74,0,12.52-.9,17.33-2.68,2.66-.98,5.23-2.51,7.7-4.6h-54.12Z"/>
  <path d="M771.04,96.54c5.36,4.85,14.59,7.28,27.7,7.28,7.76,0,14.2-1.12,19.3-3.37,2.42-1.06,4.6-2.36,6.51-3.91h-53.51ZM831.03,64.5c-2.13-3.54-5.54-6.5-10.23-8.89-4.68-2.39-12.44-4.75-23.27-7.08-4.37-.91-7.14-1.9-8.31-2.96-1.2-1.02-1.8-2.16-1.8-3.44,0-1.75.72-3.24,2.18-4.46,1.46-1.22,3.63-1.83,6.51-1.83,3.5,0,6.24.82,8.23,2.46,1.99,1.64,3.29,4.27,3.91,7.88l23.35-1.37c-.45-3.66-1.32-6.88-2.61-9.67h-62.31c-1.45,2.94-2.18,6.01-2.18,9.23,0,6.27,2.33,11.43,7,15.48,4.63,4.05,12.38,7.29,23.24,9.73,6.64,1.46,10.87,3.01,12.69,4.65,1.82,1.64,2.74,3.5,2.74,5.58,0,2.19-.96,4.11-2.88,5.77-1.91,1.66-4.64,2.49-8.17,2.49-4.74,0-8.39-1.62-10.94-4.87-1.57-2-2.61-4.92-3.12-8.75l-23.57,1.48c.5,5.73,2.13,10.75,4.92,15.05h63.28c.09-.13.18-.26.27-.4,2.85-4.34,4.27-9.08,4.27-14.22,0-4.37-1.07-8.33-3.2-11.86ZM822.01,26.63c-5.38-3.81-13.19-5.72-23.44-5.72-8.35,0-14.92,1.05-19.71,3.15-3.34,1.46-6.1,3.3-8.27,5.52h54.74c-.99-1.1-2.1-2.08-3.32-2.95Z"/>
</svg>